# xmcd
#
# Track frame offsets:
#	150
#	19342
#	37284
#	52467
#	69276
#	83874
#	99640
#	112777
#	130975
#	143950
#	158669
#	175916
#
# Disc length: 2554 seconds
#
# Revision: 1
# Processed by: cddbd v1.4PL0 Copyright (c) Steve Scherf et al.
# Submitted via: audiograbber 1.82.02
#
DISCID=a909f80c
DTITLE=Liv Marit Wedvik - Whatever You Say
DYEAR=2004
DGENRE=Country
TTITLE0=Whatever You Say
TTITLE1=Piece Of My Heart
TTITLE2=Tennesse Rose
TTITLE3=Every Breath You Take
TTITLE4=Take Me As I Am
TTITLE5=Think It Over
TTITLE6=They Don`t Know
TTITLE7=Never Knew Lonely
TTITLE8=Small Town Saturday Night
TTITLE9=The Note
TTITLE10=Sugar Baby Love
TTITLE11=Meanwhile
EXTD=
EXTT0=
EXTT1=
EXTT2=
EXTT3=
EXTT4=
EXTT5=
EXTT6=
EXTT7=
EXTT8=
EXTT9=
EXTT10=
EXTT11=
PLAYORDER=
